<svg width="256" height="256" viewBox="0 0 256 256" fill="none" xmlns="http://www.w3.org/2000/svg" role="img" aria-labelledby="title desc">
  <title id="title">ThreadsMe logo</title>
  <desc id="desc">A blue automation monogram for ThreadsMe with connected thread nodes.</desc>
  <defs>
    <linearGradient id="ThreadsMe-bg" x1="34" y1="26" x2="220" y2="232" gradientUnits="userSpaceOnUse">
      <stop stop-color="#2563EB"/>
      <stop offset="0.54" stop-color="#3158F4"/>
      <stop offset="1" stop-color="#4F46E5"/>
    </linearGradient>
    <linearGradient id="ThreadsMe-line" x1="61" y1="77" x2="199" y2="184" gradientUnits="userSpaceOnUse">
      <stop stop-color="#FFFFFF"/>
      <stop offset="1" stop-color="#DBEAFE"/>
    </linearGradient>
    <filter id="ThreadsMe-shadow" x="0" y="0" width="256" height="256" filterUnits="userSpaceOnUse" color-interpolation-filters="sRGB">
      <feDropShadow dx="0" dy="18" stdDeviation="18" flood-color="#1E40AF" flood-opacity="0.22"/>
    </filter>
  </defs>
  <rect x="20" y="20" width="216" height="216" rx="54" fill="url(#ThreadsMe-bg)" filter="url(#ThreadsMe-shadow)"/>
  <rect x="33" y="33" width="190" height="190" rx="43" stroke="white" stroke-opacity="0.18" stroke-width="2"/>
  <path d="M66 169V84C66 78.477 70.477 74 76 74H80.4C84.086 74 87.472 76.027 89.213 79.276L128 151.656L166.787 79.276C168.528 76.027 171.914 74 175.6 74H180C185.523 74 190 78.477 190 84V169" stroke="url(#ThreadsMe-line)" stroke-width="18" stroke-linecap="round" stroke-linejoin="round"/>
  <path d="M78 174C101.698 193.795 153.85 193.785 178 174" stroke="#BFDBFE" stroke-opacity="0.78" stroke-width="8" stroke-linecap="round"/>
  <circle cx="66" cy="169" r="12" fill="#FFFFFF"/>
  <circle cx="128" cy="154" r="10" fill="#DBEAFE"/>
  <circle cx="190" cy="169" r="12" fill="#FFFFFF"/>
  <circle cx="190" cy="169" r="23" stroke="#FFFFFF" stroke-opacity="0.22" stroke-width="4"/>
</svg>
